<svg xmlns="http://www.w3.org/2000/svg" viewBox="0 0 512 512">
  <defs>
    <linearGradient id="g" x1="0" y1="0" x2="1" y2="1">
      <stop offset="0" stop-color="#7dd3fc"/>
      <stop offset="1" stop-color="#2563eb"/>
    </linearGradient>
  </defs>
  <rect width="512" height="512" rx="96" fill="#0f1322"/>
  <circle cx="256" cy="210" r="110" fill="url(#g)"/>
  <circle cx="220" cy="190" r="14" fill="#0f1322"/>
  <circle cx="292" cy="190" r="14" fill="#0f1322"/>
  <path d="M146 320c20 40 48 56 80 48 16-4 32-12 48-12s32 8 48 12c32 8 60-8 80-48-40 8-72-16-112-16s-72 24-112 16z" fill="#7c3aed" opacity=".9"/>
  <path d="M120 340c-8 20 10 32 20 36 20 8 44-2 64-8s36 0 56 4 44 10 64 8c24-2 44-20 48-40-36 12-64 0-96-4s-64 8-96 8c-20 0-40-6-60-4z" fill="#22d3ee" opacity=".8"/>
</svg>
